<?xml version="1.0" encoding="UTF-8" standalone="no"?>
<svg
   viewBox="0 0 3162.6399 3303.2"
   height="3303.2"
   width="3162.6399"
   xml:space="preserve"
   id="svg2"
   version="1.1"
   sodipodi:docname="Cute-penguin-sleep-on-ice-floe.svg"
   inkscape:version="1.2.2 (b0a8486541, 2022-12-01)"
   xmlns:inkscape="http://www.inkscape.org/namespaces/inkscape"
   xmlns:sodipodi="http://sodipodi.sourceforge.net/DTD/sodipodi-0.dtd"
   xmlns="http://www.w3.org/2000/svg"
   xmlns:svg="http://www.w3.org/2000/svg"
   xmlns:rdf="http://www.w3.org/1999/02/22-rdf-syntax-ns#"
   xmlns:cc="http://creativecommons.org/ns#"
   xmlns:dc="http://purl.org/dc/elements/1.1/"><sodipodi:namedview
     id="namedview53"
     pagecolor="#ffffff"
     bordercolor="#666666"
     borderopacity="1.0"
     inkscape:showpageshadow="2"
     inkscape:pageopacity="0.0"
     inkscape:pagecheckerboard="0"
     inkscape:deskcolor="#d1d1d1"
     showgrid="false"
     inkscape:zoom="0.31091064"
     inkscape:cx="611.10807"
     inkscape:cy="1653.2082"
     inkscape:window-width="3440"
     inkscape:window-height="1371"
     inkscape:window-x="2560"
     inkscape:window-y="32"
     inkscape:window-maximized="1"
     inkscape:current-layer="svg2" /><metadata
     id="metadata8"><rdf:RDF><cc:Work
         rdf:about=""><dc:format>image/svg+xml</dc:format><dc:type
           rdf:resource="http://purl.org/dc/dcmitype/StillImage" /></cc:Work></rdf:RDF></metadata><defs
     id="defs6" /><g
     transform="matrix(1.3333333,0,0,-1.3333333,0,3303.2)"
     id="g10"><g
       transform="scale(0.1)"
       id="g12"><g
         transform="scale(1.51988)"
         id="g14" /><g
         transform="scale(1.26628)"
         id="g22"><path
           id="path24"
           style="fill:#000000;fill-opacity:0.30309761;fill-rule:nonzero;stroke:none"
           d="m 12559,5461.45 c -1114.5,14.77 -8477.88,220.25 -8477.88,220.25 0,0 -984.83,-159.6 -742.01,-578.79 194.19,-335.23 1950.32,-901.69 3500.57,-1162.54 -173.49,-6.87 -338.05,-18.95 -449.38,-93.97 299.44,-77.24 647.19,-40.2 1008.17,12.63 158.53,-19.19 312.16,-33.95 458.69,-43.83 -257.31,-24.24 -507.69,-45.8 -635.72,-150.59 317.37,-117.99 1072.8,-43.2 1781.57,45.24 -25.42,-7.73 -47.77,-16.03 -66.18,-25.19 -435.76,-214.72 310.36,-210.93 607.93,-194.27 446.35,25.04 1772.74,327.82 2010.84,74.71 -738.6,-136.54 -1900.28,-49.44 -2440.21,-403.23 376.22,-55.04 2608.21,70.05 1023.51,-285.24 388,-263.69 1524.1,104.55 2084.2,97.84 -326.2,-170.5 -922.5,-184.95 -1249.8,-336.5 492.1,-124.7 1378.4,39.25 1726,-169.63 -73.4,-23.14 -253,-147.44 -325.2,-189.53 262.5,-23.38 1234.9,-63.97 1333.8,169.95 69.9,121.22 -154.4,181.31 -397.9,195.69 322.9,10.26 727.1,44.14 562.6,194.19 -157.3,143.41 -1083.1,15.4 -1306.2,2.84 358.1,267.48 1678.2,18.01 1920.5,355.14 -495.3,181.56 -1379.6,-20.3 -1729.3,226.57 434.8,233.68 1120.3,-13.35 1597.5,127.62 881.1,258.71 -985.3,268.26 -1174.4,314.78 551.5,145.07 1154.2,45.64 1670.7,150.75 -20.4,59.87 -74,104.96 -151.8,138.2 1600.4,382.94 217.4,1275.71 -2140.6,1306.91" /></g><path
         id="path26"
         style="fill:#5ec4db;fill-opacity:1;fill-rule:nonzero;stroke:none"
         d="M 9282.39,10134.4 9504.62,5512 c 535.78,-49.9 1074.08,-87.7 1583.38,-113.7 v 4743.3 c -550.4,-2.9 -1168.75,-5.3 -1805.61,-7.2" /><path
         id="path28"
         style="fill:#57b5c4;fill-opacity:1;fill-rule:nonzero;stroke:none"
         d="m 11918.9,10146.9 c -251.4,-1.9 -531.1,-3.7 -830.9,-5.3 V 5398.3 c 225.9,-11.5 446.2,-20.8 658,-27.7 l 172.9,4776.3" /><g
         transform="scale(1.15799)"
         id="g30"><path
           id="path32"
           style="fill:#5ec4db;fill-opacity:1;fill-rule:nonzero;stroke:none"
           d="M 15349.1,9483.95 V 5178.9 c 487.8,89.03 845.7,159.16 950.9,179.88 v 4302.03 c -257.3,-47.41 -585.6,-108.64 -950.9,-176.86" /></g><g
         transform="scale(1.2428)"
         id="g34"><path
           id="path36"
           style="fill:#57b5c4;fill-opacity:1;fill-rule:nonzero;stroke:none"
           d="m 16300,8902.66 c 0,0 -434.8,201.24 -587.2,190.94 -29.9,-1.93 -225.9,-36.94 -525.1,-92.05 V 4993.09 c 19.4,3.86 29.8,5.95 29.8,5.95 L 16300,8902.66" /></g><path
         id="path38"
         style="fill:#abe6ef;fill-opacity:1;fill-rule:nonzero;stroke:none"
         d="m 3937.31,10125.8 1115.8,-2964 v 2964.7 c -681.02,-0.6 -1115.8,-0.7 -1115.8,-0.7" /><path
         id="path40"
         style="fill:#9added;fill-opacity:1;fill-rule:nonzero;stroke:none"
         d="M 5053.11,10126.5 V 7161.8 l 213.58,-567.3 c 120.11,-235.9 560.55,-436.3 1184.68,-602.9 v 4136.6 c -524.59,-0.8 -1002.89,-1.3 -1398.26,-1.7" /><path
         id="path42"
         style="fill:#87d3e7;fill-opacity:1;fill-rule:nonzero;stroke:none"
         d="m 9282.39,10134.4 c -958.52,-2.9 -1958.59,-4.9 -2831.02,-6.2 V 5991.6 C 7259.72,5775.9 8376.26,5617.1 9504.62,5512 l -222.23,4622.4" /><g
         transform="scale(1.09044)"
         id="g44"><path
           id="path46"
           style="fill:#87d3e7;fill-opacity:1;fill-rule:nonzero;stroke:none"
           d="m 12081,9323.06 c -108.4,-7.24 -538.1,-13.02 -1150.6,-17.69 l -158.6,-4380.18 c 654.4,-21.46 1220.3,-19.08 1600.3,6.05 1086.3,72.08 2821.3,366.28 3927.9,568.49 v 4571.77 c -1606.1,-300.18 -3880.7,-726.06 -4219,-748.44" /></g><g
         transform="scale(1.2428)"
         id="g48"><path
           id="path50"
           style="fill:#ffffff;fill-opacity:1;fill-rule:nonzero;stroke:none"
           d="M 6888.06,9498.25 C 6773.58,9490.6 3216.77,8572.35 3168.1,8147.59 3119.66,7722.9 7531.98,6482.47 7531.98,6482.47 l 1381.3,551.34 577.16,-613.22 4898.86,669.38 893.2,1553.59 1017.5,259.1 c 0,0 -1105.7,570.16 -2889.2,824.19 -1523.3,216.84 -6522.74,-228.6 -6522.74,-228.6" /></g><g
         transform="scale(1.13)"
         id="g52"><path
           id="path54"
           style="fill:#e8eced;fill-opacity:1;fill-rule:nonzero;stroke:none"
           d="m 16300,8979.56 c 0,-71.95 -2604.2,-130.36 -5816.6,-130.36 -3212.51,0 -5816.71,58.41 -5816.71,130.36 0,71.94 2604.2,130.35 5816.71,130.35 3212.4,0 5816.6,-58.41 5816.6,-130.35" /></g><g
         transform="scale(1.28194)"
         id="g56"><path
           id="path58"
           style="fill:#f27c4d;fill-opacity:1;fill-rule:nonzero;stroke:none"
           d="m 15089.6,10220 c -359.6,-9.8 -528.4,71.1 -596.7,66.8 -68.3,-4.5 -120.8,-75.2 -57.5,-222.3 48.9,-113.56 -146.5,-468.56 -238,-624.35 9.3,-25.5 18.3,-51.56 29,-77.69 11.5,-28.16 71.2,2.81 89.7,30.03 9.2,-2.81 39,-3.74 45.9,-14.12 11.5,-28.08 -9.1,-62.79 11.5,-93.76 18.5,-38.46 92,-28.16 105.8,16.85 29,-8.82 50.7,-25.82 65.1,-46.03 33,117.95 106.1,371.63 137.9,424.75 41.7,69.66 85.6,167.95 462.2,-50.86 376.4,-218.73 693.6,-199.54 924.6,-143.14 230.9,56.48 -273.1,286.05 -373.7,497.37 -100.6,211.35 -246.4,246.15 -605.8,236.45" /></g><g
         transform="scale(1.19253)"
         id="g60"><path
           id="path62"
           style="fill:#3f3f41;fill-opacity:1;fill-rule:nonzero;stroke:none"
           d="m 13490.6,13796.1 c -1895.2,0 -4053.63,-1017.9 -4053.63,-2785.9 0,-229.3 205.86,-2290.36 254.92,-2505.95 l 5317.71,4.44 c 786.4,586.65 1290.4,1489.02 1290.4,2501.51 0,1768 -914.3,2785.9 -2809.4,2785.9" /></g><path
         id="path64"
         style="fill:#3f3f41;fill-opacity:1;fill-rule:nonzero;stroke:none"
         d="m 7899.27,11732.8 111.43,-645.2 c 0,0 402.98,-258.4 870.67,-413.4 0,0 87.23,-5.1 214.47,-8.2 103.37,74.3 172.55,127.6 172.55,127.6 298.99,391.7 486.28,832.2 486.28,832.2 l -271.59,595.8 -1583.81,-488.8" /><g
         transform="scale(1.04425)"
         id="g66"><path
           id="path68"
           style="fill:#3f3f41;fill-opacity:1;fill-rule:nonzero;stroke:none"
           d="m 8050.9,16300 c -2068.95,0 -3746.17,-1677.2 -3746.17,-3746.2 0,-1133.9 504.01,-2149.9 1299.99,-2836.88 h 180.73 4935.35 c 589.5,661.88 1076.3,1880.88 1076.3,2836.88 0,2069 -1677.3,3746.2 -3746.2,3746.2" /></g><path
         id="path70"
         style="fill:#fefefe;fill-opacity:1;fill-rule:nonzero;stroke:none"
         d="m 11167.5,14604.6 c -92.1,298.5 -211.1,579.8 -352.4,841 -865.6,230 -1677.98,-379.4 -1834.27,-1394.1 -103.07,-669.1 104.62,-1351.5 502.25,-1829.9 l 271.59,-595.8 c 0,0 -187.29,-440.5 -486.28,-832.2 0,0 -69.18,-53.3 -172.55,-127.6 -127.24,3.1 -214.47,8.2 -214.47,8.2 -467.69,155 -870.67,413.4 -870.67,413.4 l -111.43,645.2 c 58.88,619.3 -154.12,1300 -616.37,1794.7 -720.24,770.8 -1771.61,797.8 -2348.31,60.3 -57.22,-73.1 -107.5,-151.1 -151.16,-232.9 34.13,-223.4 85.38,-448.3 154.66,-672.8 329.35,-1067.2 611.56,-1983.9 1103.37,-2535.2 h 4748.74 l 241.6,211.2 c 1318,782.7 692.8,2441.4 135.7,4246.5" /><g
         transform="scale(1.18342)"
         id="g72"><path
           id="path74"
           style="fill:#ffffff;fill-opacity:1;fill-rule:nonzero;stroke:none"
           d="m 14484.5,11143.3 c -1333.4,0 -2996.3,-263.1 -2996.3,-1099.4 0,-38.7 2.4,-77.05 6.9,-114.99 -70.3,-28.23 -413.4,-1323.37 -474.9,-1354.72 h 4109.5 c 245.6,183.2 463.9,396.99 648.2,635.19 0,0.26 0,0.6 0,0.85 228.2,273.11 397,679.89 522.1,1013.17 -67,798.8 -525.3,919.9 -1815.5,919.9" /></g><g
         transform="scale(1.07837)"
         id="g76"><path
           id="path78"
           style="fill:#3f3f41;fill-opacity:1;fill-rule:nonzero;stroke:none"
           d="m 16272.8,10514.2 c -187.9,637.4 -1972.1,11.4 -2654.4,133.1 -491.7,87.7 -2041.5,704.3 -2041.5,704.3 l -1294.7,-1947.02 3874,4.92 c 1675.3,291.45 2143.8,1012.4 2116.6,1104.7" /></g><g
         transform="scale(1.2534)"
         id="g80"><path
           id="path82"
           style="fill:#f27c4d;fill-opacity:1;fill-rule:nonzero;stroke:none"
           d="m 15246.5,9790.37 c -360.8,71.89 -510.9,190.76 -580,201.93 -69.1,11 -137.4,-47.55 -107.7,-208.55 23.1,-124.46 -252.3,-434.18 -378.9,-568.69 3.4,-27.6 6.5,-55.61 11.3,-84.09 5.1,-30.72 71.6,-13.41 96.2,9.57 8.5,-4.87 38.1,-12.6 42.6,-24.41 5.1,-30.72 -23.4,-60.64 -9.7,-96.14 9.6,-42.52 85.3,-48.99 109.3,-7.18 26.9,-15.48 44.7,-37.26 54.4,-60.71 59.7,110.17 190.1,346.57 233.9,392.29 57.5,59.99 123.4,148.15 449.3,-155.5 326,-303.49 646.6,-356.31 889.7,-352.4 243.1,3.91 -207.5,347.14 -259.8,580.74 -52.4,233.52 -189.9,301.34 -550.6,373.14" /></g><path
         id="path84"
         style="fill:#f1766d;fill-opacity:1;fill-rule:nonzero;stroke:none"
         d="m 6799.79,11051.8 c -269.16,-83 -486.22,-264 -473.18,-301.5 l 963.47,335.1 c -13.04,37.5 -256.7,38.4 -490.29,-33.6" /><path
         id="path86"
         style="fill:#f1766d;fill-opacity:1;fill-rule:nonzero;stroke:none"
         d="m 10779.2,12219.9 c -269.2,-83 -486.2,-264 -473.2,-301.4 l 963.5,335 c -13.1,37.5 -256.7,38.4 -490.3,-33.6" /><path
         id="path88"
         style="fill:#3f3f41;fill-opacity:1;fill-rule:nonzero;stroke:none"
         d="m 5755.96,11540 c 392.33,-268.9 880.7,-65.6 1162.55,268.7 91.13,108 -64.42,265.1 -156.26,156.2 -219.6,-260.4 -581.88,-448.6 -894.76,-234 -117.58,80.6 -228.23,-110.8 -111.53,-190.9 v 0" /><path
         id="path90"
         style="fill:#3f3f41;fill-opacity:1;fill-rule:nonzero;stroke:none"
         d="m 9807.01,12631.6 c 392.29,-269 880.69,-65.7 1162.59,268.6 91.1,108 -64.5,265.1 -156.3,156.2 -219.6,-260.4 -581.9,-448.5 -894.76,-234 -117.58,80.6 -228.23,-110.8 -111.53,-190.8 v 0" /><path
         id="path92"
         style="fill:#e06a46;fill-opacity:1;fill-rule:nonzero;stroke:none"
         d="m 7831.68,11448.9 884.75,191.7 781.28,558.2 c 71.49,-85.8 108.46,-201.7 156.36,-311 238.63,-544.6 49.95,-1153.5 -421.44,-1360.1 -471.39,-206.5 -1046.97,67.5 -1285.6,612.1 -45.38,103.6 -99.89,204.1 -115.35,309.1" /><path
         id="path94"
         style="fill:#991723;fill-opacity:1;fill-rule:nonzero;stroke:none"
         d="m 8013.24,11529.8 702.66,125.3 599.07,463.6 c 62.35,-81.8 98.53,-189 143.17,-290.9 222.36,-507.4 103.8,-1049.8 -264.82,-1211.3 -368.62,-161.5 -847.71,118.9 -1070.07,626.4 -42.29,96.5 -91.76,190.8 -110.01,286.9" /><path
         id="path96"
         style="fill:#f27c4d;fill-opacity:1;fill-rule:nonzero;stroke:none"
         d="m 8231.01,12646.6 c 5.35,5.2 7.76,7.3 26.32,15.6 844.08,74.7 1240.38,-463.4 1240.38,-463.4 l -24.68,-17.7 -756.6,-540.5 -860.09,-186.3 -24.66,-5.4 c 0,0 -201.1,613.4 399.33,1197.7" /><g
         transform="scale(1.1584)"
         id="g98"><path
           id="path100"
           style="fill:#3f3f41;fill-opacity:1;fill-rule:nonzero;stroke:none"
           d="m 10376.1,15702.1 c -210.5,5.2 -421.08,10.5 -631.71,15.7 189.14,138.1 378.21,276.3 567.31,414.4 39.3,28.7 44.6,106.5 -15.3,117 -227.6,39.7 -457.48,50.8 -687.72,29.9 -81.4,-7.3 -82.18,-135.4 0,-128 169.03,15.3 338.49,14.1 506.62,-4.6 -197.39,-144.3 -394.91,-288.5 -592.34,-432.8 -49.55,-36.2 -35.22,-117.6 32.29,-119.3 273.65,-6.7 547.35,-13.5 820.85,-20.3 82.5,-2 82.5,126 0,128" /></g><g
         transform="scale(1.2628)"
         id="g102"><path
           id="path104"
           style="fill:#3f3f41;fill-opacity:1;fill-rule:nonzero;stroke:none"
           d="m 11398.9,15419.7 c -310.1,7.7 -620.1,15.4 -930.2,23 278.4,203.4 556.9,406.8 835.3,610.2 57.8,42.3 65.7,156.9 -22.5,172.3 -335.2,58.5 -673.6,74.8 -1012.7,44.1 -119.8,-10.9 -120.9,-199.5 0,-188.5 248.9,22.6 498.5,20.8 746.2,-6.8 -290.8,-212.4 -581.6,-424.8 -872.4,-637.2 -72.9,-53.4 -51.8,-173.2 47.6,-175.7 402.9,-9.9 805.8,-19.9 1208.7,-29.9 121.4,-3 121.3,185.5 0,188.5"
           inkscape:label="path104" /></g></g></g></svg>
